<svg width="39" height="48" viewBox="0 0 39 48" fill="none" xmlns="http://www.w3.org/2000/svg">
<path d="M19.3254 23.5863C12.8221 23.5863 7.53223 18.2964 7.53223 11.7932C7.53223 5.28986 12.8221 0 19.3254 0C25.8287 0 31.1185 5.28986 31.1185 11.7932C31.1185 18.2964 25.8287 23.5863 19.3254 23.5863ZM19.3254 1.58489C13.6971 1.58489 9.11712 6.16485 9.11712 11.7932C9.11712 17.4215 13.6971 22.0014 19.3254 22.0014C24.9537 22.0014 29.5336 17.4215 29.5336 11.7932C29.5336 6.16485 24.9537 1.58489 19.3254 1.58489Z" fill="black"/>
<path d="M19.3256 47.7188C6.65605 47.7188 0.6329 44.1665 0.382508 44.0152C0.141748 43.8694 -0.00271294 43.608 3.86138e-05 43.3273C0.0275541 40.9775 0.0413169 38.3222 0.0138014 37.8957C0.00417098 37.8476 3.86138e-05 37.7981 3.86138e-05 37.7472C3.86138e-05 33.4492 1.41296 30.3936 4.3186 28.4056C7.3797 26.3117 12.2885 25.2936 19.3256 25.2936C26.3627 25.2936 31.2728 26.3117 34.3325 28.4056C37.2382 30.3936 38.6511 33.4492 38.6511 37.7472C38.6511 37.7967 38.647 37.8476 38.6373 37.8957C38.6098 38.3209 38.6236 40.9775 38.6511 43.3273C38.6538 43.608 38.5094 43.8694 38.2686 44.0152C38.0182 44.1665 31.9951 47.7188 19.3256 47.7188ZM1.59044 42.865C3.08453 43.6121 8.90131 46.1339 19.3256 46.1339C29.7498 46.1339 35.5638 43.6135 37.0607 42.865C37.0222 39.5659 37.0125 38.3016 37.0689 37.7485H37.0662C37.0662 33.9624 35.9133 31.409 33.4383 29.7154C30.6496 27.8072 26.0338 26.8799 19.3256 26.8799C12.6173 26.8799 8.00155 27.8072 5.21286 29.7154C2.73783 31.409 1.58494 33.961 1.58494 37.7485H1.58218C1.63996 38.3016 1.62896 39.5659 1.59044 42.865ZM38.4571 38.2686C38.4571 38.2686 38.4571 38.2686 38.4571 38.27C38.4571 38.27 38.4571 38.27 38.4571 38.2686ZM0.195405 38.2686C0.195405 38.2686 0.195405 38.2686 0.195405 38.27C0.195405 38.27 0.195405 38.27 0.195405 38.2686ZM38.4599 38.2672C38.4599 38.2672 38.4599 38.2672 38.4599 38.2686C38.4599 38.2686 38.4599 38.2686 38.4599 38.2672ZM0.194028 38.2672C0.194028 38.2672 0.194028 38.2672 0.194028 38.2686C0.194028 38.2686 0.194028 38.2686 0.194028 38.2672ZM38.5424 38.1516C38.519 38.1915 38.4901 38.2314 38.4599 38.2672C38.4929 38.2287 38.5204 38.1902 38.5424 38.1516ZM0.192651 38.2658C0.192651 38.2658 0.192651 38.2658 0.192651 38.2672C0.192651 38.2672 0.192651 38.2672 0.192651 38.2658ZM0.191273 38.2645C0.191273 38.2645 0.191275 38.2645 0.192651 38.2658C0.192651 38.2658 0.192649 38.2658 0.191273 38.2645ZM0.112853 38.1558C0.13349 38.1915 0.159631 38.2273 0.191273 38.2645C0.162382 38.2301 0.136241 38.1943 0.112853 38.1558Z" fill="black"/>
</svg>
